<?xml version="1.0" encoding="UTF-8" standalone="no"?>
<svg xmlns:dc="http://purl.org/dc/elements/1.1/" xmlns:cc="http://creativecommons.org/ns#" xmlns:rdf="http://www.w3.org/1999/02/22-rdf-syntax-ns#" xmlns:svg="http://www.w3.org/2000/svg" xmlns="http://www.w3.org/2000/svg" id="svg8" version="1.1" viewBox="0 0 128.47639 34.533466" height="34.533466mm" width="128.47639mm">
  <title id="title825">inhub logo</title>
  <defs id="defs2"/>
  <metadata id="metadata5">
    <rdf:RDF>
      <cc:Work rdf:about="">
        <dc:format>image/svg+xml</dc:format>
        <dc:type rdf:resource="http://purl.org/dc/dcmitype/StillImage"/>
        <dc:title>inhub logo</dc:title>
      </cc:Work>
    </rdf:RDF>
  </metadata>
  <g transform="translate(-28.57346,-122.29071)" id="layer1">
    <g id="g943" transform="matrix(0.35277777,0,0,-0.35277777,28.573485,156.82412)">
      <g id="g945" transform="scale(0.1)">
        <path d="m 1211.94,187.402 c -24.7,0 -44.79,20.075 -44.79,44.774 v 342.347 c 0,24.7 20.09,44.774 44.79,44.774 24.69,0 44.8,-20.074 44.8,-44.774 V 232.176 c 0,-24.699 -20.11,-44.774 -44.8,-44.774" style="fill:#ffffff;fill-opacity:1;fill-rule:nonzero;stroke:none" id="path947"/>
        <path d="m 1767.13,187.402 c -24.69,0 -44.77,20.075 -44.77,44.774 v 195.949 c 0,15.379 -2.63,29.676 -7.79,42.527 -5.01,11.254 -12.42,21.754 -22.15,31.512 -9,9.004 -19.4,15.664 -32.72,20.981 -14.5,5.804 -28.41,6.605 -40.13,6.605 H 1419.99 V 232.176 c 0,-24.699 -20.08,-44.774 -44.78,-44.774 -24.7,0 -44.77,20.075 -44.77,44.774 v 343.508 c 0,6.015 1,12.156 3.04,18.273 2.51,3.691 5.63,8.902 9.52,12.773 4.88,4.903 9.48,8.028 13.99,9.524 6.07,2.039 12.21,3.043 18.22,3.043 h 245.55 c 12.39,0 26.19,-1.133 41.06,-3.406 16.23,-3.817 30.27,-8.489 43.48,-14.606 15.05,-7.508 28.47,-15.691 40.78,-24.93 11.25,-9.21 22.63,-21.367 33.52,-35.871 10.5,-15.171 17.93,-30.812 23.25,-48.929 5.96,-18.992 9.06,-40.875 9.06,-63.43 V 232.176 c 0,-24.699 -20.08,-44.774 -44.78,-44.774" style="fill:#ffffff;fill-opacity:1;fill-rule:nonzero;stroke:none" id="path949"/>
        <path d="m 2795.88,186.961 c -12.85,0 -26.6,1.473 -40.93,4.414 -14.37,2.84 -28.77,7.586 -42.83,14.168 -14.04,6.477 -27.88,14.812 -41.14,24.824 -12.98,9.91 -24.46,21.988 -34.04,35.848 -9.73,14.113 -17.68,30.656 -23.66,49.16 -5.94,18.504 -8.93,39.77 -8.93,63.125 v 196.516 c 0,24.722 20.1,44.824 44.82,44.824 24.75,0 44.86,-20.102 44.86,-44.824 V 378.5 c 0,-15.484 2.7,-29.629 8.02,-42.016 5.39,-12.308 12.78,-23.07 21.99,-32.101 9.13,-8.852 20.13,-15.77 32.67,-20.649 12.52,-4.718 25.96,-7.093 40.03,-7.093 h 199.74 v 298.375 c 0,24.722 20.1,44.824 44.82,44.824 24.75,0 44.86,-20.102 44.86,-44.824 V 232.199 c 0,-6.527 -1.14,-12.465 -3.49,-18.14 -2.24,-5.446 -5.42,-10.219 -9.42,-14.196 -4.13,-4.101 -8.88,-7.3 -14.11,-9.496 -5.42,-2.297 -11.13,-3.406 -17.42,-3.406 h -245.84" style="fill:#ffffff;fill-opacity:1;fill-rule:nonzero;stroke:none" id="path951"/>
        <path d="m 3249.72,330.086 c 0,-16.055 5.24,-29.164 15.54,-38.941 10.12,-9.629 22.87,-14.504 37.91,-14.504 h 196.03 c 16.33,0 29.42,5.082 38.89,15.07 9.39,9.91 14.16,22.812 14.16,38.375 v 147.098 c 0,16.257 -5.11,29.339 -15.12,38.941 -9.88,9.316 -22.63,14.039 -37.93,14.039 h -249.48 z m 53.48,-143.254 c -9.55,0 -19.88,1.137 -30.66,3.434 -11.25,2.347 -22.04,5.882 -32.11,10.504 -10.27,4.437 -20.46,10.527 -30.5,18.246 -9.86,7.535 -18.4,16.539 -25.42,26.785 -7.48,10.683 -13.29,22.683 -17.8,36.773 -4.52,13.809 -6.79,29.781 -6.79,47.535 v 417.106 c 0,24.75 20.1,44.851 44.82,44.851 24.73,0 44.83,-20.101 44.83,-44.851 V 619.867 h 249.6 c 9.55,0 19.87,-1.137 30.66,-3.433 11.25,-2.348 22.04,-5.883 32.1,-10.504 11.07,-4.774 21.21,-10.864 30.35,-18.117 9.57,-7.329 18.04,-16.333 25.29,-26.915 7.3,-10.398 13.27,-22.66 17.83,-36.543 4.26,-14.011 6.45,-29.96 6.45,-47.171 V 330.109 c 0,-9.574 -1.13,-19.871 -3.43,-30.632 -1.8,-9.985 -5.16,-20.489 -10.27,-32.332 -4.9,-10.891 -10.91,-20.801 -18.35,-30.168 -7.53,-9.832 -16.49,-18.426 -26.71,-25.629 -10.78,-7.356 -22.84,-13.188 -36.75,-17.754 -13.98,-4.543 -29.41,-6.762 -47.17,-6.762 H 3303.2" style="fill:#ffffff;fill-opacity:1;fill-rule:nonzero;stroke:none" id="path953"/>
        <path d="m 1930.42,187.402 c -26.7,0 -48.44,21.707 -48.44,48.407 0,26.703 21.74,48.41 48.44,48.41 26.7,0 48.41,-21.707 48.41,-48.41 0,-26.7 -21.71,-48.407 -48.41,-48.407" style="fill:#5dc8b6;fill-opacity:1;fill-rule:nonzero;stroke:none" id="path955"/>
        <path d="m 2485.45,187.453 c -11.98,0 -23.25,4.645 -31.72,13.137 -8.44,8.461 -13.11,19.738 -13.08,31.715 l 0.23,245.496 c 0,16.644 -4.49,29.574 -13.34,38.426 -8.75,8.75 -22.58,13.367 -39.98,13.367 h -248.98 v -297.34 c 0,-24.699 -20.1,-44.801 -44.8,-44.801 -24.74,0 -44.85,20.102 -44.85,44.801 v 514.961 c 0,24.723 20.11,44.828 44.83,44.828 24.72,0 44.82,-20.105 44.82,-44.828 V 619.246 h 248.98 c 9.89,0 20.13,-1.109 31.33,-3.406 10.22,-2.039 21.4,-5.524 32.39,-10.063 8.08,-3.433 16.49,-8.879 25.39,-14.632 l 5.14,-3.305 c 8.49,-6.863 15.95,-15.098 24.18,-26.992 7.36,-9.239 12.72,-20.313 17.76,-36.364 4.23,-12.437 6.5,-28.929 6.5,-46.683 V 232.254 c 0,-24.699 -20.1,-44.801 -44.8,-44.801" style="fill:#ffffff;fill-opacity:1;fill-rule:nonzero;stroke:none" id="path957"/>
        <path d="m 512.633,489.004 c 0,-40.258 -32.637,-72.891 -72.891,-72.891 -40.258,0 -72.894,32.633 -72.894,72.891 0,40.258 32.636,72.894 72.894,72.894 40.254,0 72.891,-32.636 72.891,-72.894 z M 370.844,769.695 c 8.89,-7.113 22.222,0 21.781,11.559 l 0.441,65.781 c 0,8.445 6.668,16 15.559,15.559 8.445,0 16.004,-7.114 15.559,-15.559 l -0.446,-220.906 v -32.512 c -50.953,-7.793 -90.226,-51.515 -90.226,-104.613 0,-58.574 47.656,-106.227 106.23,-106.227 58.574,0 106.227,47.653 106.227,106.227 0,53.098 -39.278,96.824 -90.227,104.613 v 153.41 c 64.004,8.891 112.012,69.786 98.231,139.567 -8.004,43.117 -42.227,78.672 -84.899,88.898 -76.449,18.223 -144.902,-39.113 -145.344,-112.898 0,-38.227 18.668,-72.008 47.114,-92.899" style="fill:#5dc8b6;fill-opacity:1;fill-rule:nonzero;stroke:none" id="path959"/>
        <path d="m 58.375,575.457 c 33.3359,-19.113 72.004,-20.004 104.449,-6.223 10.672,4.891 11.114,20.004 0.891,25.336 l -56.891,32.891 c -7.1131,4.445 -10.6717,14.223 -5.777,21.336 3.996,7.558 14.219,10.223 21.332,6.223 l 149.793,-87.122 c -11.559,-24 -17.781,-50.668 -17.781,-79.117 0,-28 6.222,-54.668 17.781,-78.226 L 209.055,373.66 C 168.605,424.777 92.1563,435 38.8164,388.773 5.48047,359.883 -7.85547,312.766 4.58984,270.539 27.2578,195.426 111.266,164.758 174.828,201.645 c 33.336,19.113 53.34,52.449 57.336,87.121 1.336,11.558 -11.109,19.558 -20.887,13.336 l -57.339,-32.45 c -7.114,-4.445 -17.336,-2.668 -21.336,5.336 -4.446,7.555 -1.778,17.332 5.332,21.332 l 149.793,86.676 c 30.668,-43.558 80.007,-73.781 136.011,-78.23 V 231.871 C 359.289,222.984 311.73,161.645 325.063,92.3047 333.508,49.1875 367.734,13.6328 409.957,3.40625 486.41,-14.8164 554.859,42.5234 555.305,116.305 c 0,37.781 -18.223,72.008 -46.668,92.898 -9.336,6.668 -22.227,0 -22.227,-11.109 l -0.445,-66.231 c 0,-8.445 -6.223,-16.004 -15.113,-15.558 -8.442,0 -16,7.558 -16,15.558 l 0.445,172.903 c 56.449,4.449 105.789,34.672 136.457,78.23 l 62.672,-36.449 c -24.004,-60.004 4.89,-132.008 72.004,-155.121 41.34,-14.227 89.34,-2.668 119.125,29.332 54.222,56.453 39.113,144.902 -24.45,182.242 -33.335,18.668 -72.007,20 -104.453,5.777 -10.668,-4.449 -11.113,-19.558 -0.89,-24.89 l 56.894,-33.336 c 7.114,-4.004 10.668,-13.336 5.782,-20.895 -4.45,-7.554 -14.223,-10.222 -21.34,-6.222 l -149.789,87.121 c 11.558,23.558 17.781,50.226 17.781,78.226 0,28.004 -6.223,54.672 -17.781,78.676 l 63.562,36.891 c 39.559,-51.114 116.012,-61.782 169.789,-15.555 33.34,28.445 47.117,76.008 34.227,117.789 -22.223,75.559 -105.785,106.227 -169.789,69.781 -33.34,-19.113 -53.34,-52.004 -57.34,-87.117 -1.336,-11.558 11.113,-19.558 20.89,-13.336 l 57.34,32.449 c 7.11,3.996 16.891,2.219 21.332,-5.781 4.004,-7.109 1.332,-17.336 -5.777,-21.332 L 591.309,595.016 562.418,578.57 c 6.223,-8.445 11.555,-17.781 16,-27.558 8.445,-18.672 13.336,-40.004 13.336,-62.231 0,-21.777 -4.891,-42.668 -13.336,-61.781 -4,-9.777 -9.332,-18.668 -16,-27.113 -24.449,-34.227 -63.117,-57.336 -107.121,-61.785 -5.332,-0.446 -10.223,-0.887 -15.555,-0.887 -5.336,0 -10.668,0.441 -16.004,0.887 -44.004,4.449 -82.23,28.003 -106.675,61.785 -6.668,8.445 -12,17.781 -16,27.558 -8.891,18.668 -13.336,39.559 -13.336,61.336 0,22.227 4.89,43.559 13.336,62.231 4.445,9.777 9.777,19.113 16,27.558 l -28.891,16.891 -63.563,36.445 c 24.446,60.004 -4.445,132.012 -71.558,155.125 -41.34,14.223 -89.344,2.668 -119.1252,-29.336 C -20.3008,701.242 -5.1875,612.793 58.375,575.457" style="fill:#ffffff;fill-opacity:1;fill-rule:nonzero;stroke:none" id="path961"/>
      </g>
    </g>
  </g>
</svg>